<?xml version="1.0" encoding="utf-8"?>
<!-- Generator: Adobe Illustrator 19.0.1, SVG Export Plug-In . SVG Version: 6.00 Build 0)  -->
<svg version="1.1" id="Layer_1" xmlns="http://www.w3.org/2000/svg" xmlns:xlink="http://www.w3.org/1999/xlink" x="0px" y="0px"
	 viewBox="-475 477 48 48" style="enable-background:new -475 477 48 48;" xml:space="preserve">
<path d="M-442.9,501.5h-1v3.1h1c1,0,1.6-0.8,1.6-1.5C-441.3,502.2-441.8,501.5-442.9,501.5z M-450.5,501.5v1h1.3
	c0.4,0,0.6-0.2,0.6-0.5s-0.3-0.5-0.6-0.5H-450.5z M-437,498v-11l-8-8h-26v44h34v-15h6v-10H-437z M-440,520h-28v-38h21v7h7v9h-15v10
	h15V520z M-446.6,502c0,1.3-0.8,2.3-2.4,2.3h-1.5v2.1h-2v-6.7h3.6C-447.3,499.7-446.5,500.7-446.6,502z M-442.9,506.4h-3v-6.7h3
	c2.1,0,3.7,1.2,3.6,3.4C-439.3,505.2-440.8,506.4-442.9,506.4z M-433.4,501.3h-3.1v0.7h3v1.8h-3v2.5h-2v-6.7h5.1V501.3z"/>
</svg>
